<?xml version="1.0" encoding="UTF-8"?>
<svg id="Layer_2" data-name="Layer 2" xmlns="http://www.w3.org/2000/svg" viewBox="0 0 265.2 39.82">
  <defs>
    <style>
      .cls-1 {
        fill: #fff;
      }
    </style>
  </defs>
  <g id="Layer_1-2" data-name="Layer 1">
    <g>
      <path class="cls-1" d="M64.55,36.99c1.55,0,2.32-1.02,2.3-2.17,0-1.11-.79-2.21-2.33-2.21h-3.13v7.1h.55v-2.69h1.94l2.45,2.69h.72l-2.51-2.72ZM61.94,33.11h2.58c1.18,0,1.75.86,1.74,1.7,0,.99-.56,1.69-1.8,1.69h-2.52v-3.39Z"/>
      <polygon class="cls-1" points="76.32 33.12 80.69 33.12 80.69 32.6 75.79 32.6 75.79 39.71 80.81 39.71 80.81 39.18 76.33 39.18 76.33 36.38 80.49 36.38 80.49 35.88 76.33 35.88 76.32 33.12"/>
      <path class="cls-1" d="M96.23,39.71l-3.19-7.1h-.6l-3.19,7.1h.59l.77-1.75h4.24l.78,1.75h.59ZM90.83,37.45l1.91-4.32,1.91,4.32h-3.82Z"/>
      <polygon class="cls-1" points="105.42 32.6 105.42 39.71 109.96 39.71 109.96 39.19 105.96 39.19 105.96 32.6 105.42 32.6"/>
      <polygon class="cls-1" points="127.31 33.12 131.67 33.12 131.67 32.6 126.77 32.6 126.77 39.71 131.79 39.71 131.79 39.18 127.31 39.18 127.31 36.38 131.47 36.38 131.47 35.88 127.31 35.88 127.31 33.12"/>
      <path class="cls-1" d="M146.15,33.71c-.7-1.05-1.59-1.21-2.6-1.21-1.17,0-2.73.47-2.7,1.97,0,1.31,1.33,1.57,2.63,1.83,1.17.22,2.34.46,2.33,1.52,0,1.26-1.39,1.5-2.26,1.5s-1.99-.43-2.43-1.29l-.49.24c.55,1.09,1.81,1.54,2.91,1.54,1.19,0,2.8-.38,2.81-1.99,0-1.53-1.42-1.78-2.79-2.04-1.2-.22-2.17-.44-2.17-1.34,0-1.14,1.32-1.44,2.15-1.44.8.01,1.63.13,2.15.96l.45-.26Z"/>
      <polygon class="cls-1" points="157.39 39.71 157.94 39.71 157.94 33.1 160.51 33.1 160.51 32.61 154.82 32.61 154.82 33.1 157.39 33.1 157.39 39.71"/>
      <path class="cls-1" d="M175.86,39.71l-3.19-7.1h-.6l-3.19,7.1h.59l.77-1.75h4.24l.78,1.75h.59ZM170.46,37.45l1.91-4.32,1.91,4.32h-3.81Z"/>
      <polygon class="cls-1" points="186.73 39.71 187.27 39.71 187.27 33.1 189.84 33.1 189.84 32.61 184.16 32.61 184.16 33.1 186.73 33.1 186.73 39.71"/>
      <polygon class="cls-1" points="199.32 33.12 203.69 33.12 203.69 32.6 198.79 32.6 198.79 39.71 203.81 39.71 203.81 39.18 199.32 39.18 199.32 36.38 203.48 36.38 203.48 35.88 199.32 35.88 199.32 33.12"/>
      <g>
        <path class="cls-1" d="M23.1,19.49h.93l-.56,8.09H0L18.29.82h-4.66C8.38.82,3.17,3.58,2.76,8.39h-.89L2.38.34h23.4L7.52,27.09h4.66c5.66,0,10.47-3.13,10.92-7.6"/>
        <path class="cls-1" d="M50.25,27.57h-22.24v-.49c1.38,0,2.61-.52,2.61-2.68V3.51c0-2.61-1.83-2.68-2.61-2.68v-.48h21.42l.82,7.41h-.56c-.86-2.79-5.14-6.93-8.64-6.93h-1.75c-1.94,0-2.79,1.08-2.79,2.57v10.21h.97c3.21-.11,5.77-3.24,5.77-5.25h.6v10.84h-.6c0-1.9-2.76-4.96-5.85-5.07h-.89v10.4c0,2.46,2.72,2.57,2.79,2.57h2.42c5.14,0,7.75-5.48,8.53-7.9h.56l-.56,8.38Z"/>
        <path class="cls-1" d="M79.16,13.97c0,13.67-9.39,13.6-15.57,13.6h-10.54v-.49c1.87,0,2.65-.74,2.65-2.87V3.58c0-1.75-.67-2.76-2.61-2.76v-.48h12.59c6.56,0,13.49,3.61,13.49,13.64M72.57,13.94c0-8.08-2.35-13.12-8.53-13.12-1.71,0-2.46.3-2.46,2.5v21.12c0,2.5,1.08,2.61,2.94,2.61,2.57,0,8.05-1.27,8.05-13.11"/>
        <path class="cls-1" d="M104.98,27.87c-5.03,0-12.4-4.39-12.4-13.48C92.57-.52,105.83,0,105.83,0c5.7-.15,10.8,3.91,10.8,3.91l-.86,6.71h-.63c0-1.23-3.58-10.02-9.35-10.02-7.6,0-6.74,10.1-6.56,13.79.6,12.85,12.52,12.66,16.43,4.88,0,0-1.83,8.61-10.69,8.61"/>
        <path class="cls-1" d="M143.31,24.55l-8.76-22.39-8.16-1.86c.67.34,1.23.78,1.64,1.64l1.83,4.17c.11.37-5.88,15.31-6.15,15.94-.85,2.05-2.72,5.07-4.84,5.03v.49h9.83v-.49c-1.79,0-5.18-2.64-3.84-6.33l1-2.65h8.64l2.2,5.63c.82,2.09.04,3.35-1.23,3.35v.49h9.91v-.49c-1.19,0-2.08-2.53-2.08-2.53M126.06,17.55l4.13-10.58,4.14,10.58h-8.27Z"/>
        <path class="cls-1" d="M160.04.34h-12.41v.48c1.45,0,2.61.33,2.61,2.68v21.24l6.74,2.83c-.67-.67-.86-1.23-.86-2.24v-8.79h3.28c2.8,0,10.95-.08,10.95-8.31,0-6.97-6.41-7.9-10.32-7.9M159.44,16.1h-3.32V3.62c0-2.38,1.15-2.8,3.28-2.8,2.38,0,4.29,1.05,4.29,7.56s-1.75,7.71-4.25,7.71"/>
        <path class="cls-1" d="M181.09,24.41V3.17l-6.71-2.83c.63.67.82,1.23.82,2.24v21.83c0,2.31-1.15,2.68-2.61,2.68v.49h11.1v-.49c-1.45,0-2.61-.37-2.61-2.68"/>
        <path class="cls-1" d="M210.85.34h-24.25l-.67,8.72h.82c.41-2.53,4.17-8.23,8.24-8.23h.82v23.92l6.74,2.83c-.67-.67-.85-1.23-.85-2.24V.82h.45c3.83,0,8.38,5.37,8.6,8.23h.78l-.67-8.72Z"/>
        <path class="cls-1" d="M238.19,24.55l-8.75-22.39-8.16-1.86c.67.34,1.23.78,1.64,1.64l1.83,4.17c.11.37-5.88,15.31-6.15,15.94-.86,2.05-2.72,5.07-4.84,5.03v.49h9.83v-.49c-1.79,0-5.18-2.64-3.83-6.33l1-2.65h8.64l2.2,5.63c.82,2.09.04,3.35-1.23,3.35v.49h9.91v-.49c-1.19,0-2.08-2.53-2.08-2.53M220.95,17.55l4.13-10.58,4.14,10.58h-8.27Z"/>
        <path class="cls-1" d="M264.42,19.15c-1.38,5.14-7,7.93-11.1,7.93-1.12,0-2.31-.74-2.31-2.68V3.17l-6.71-2.83c.63.67.82,1.23.82,2.24v21.83c0,2.31-1.16,2.68-2.61,2.68v.49h21.87l.82-8.42h-.78Z"/>
      </g>
    </g>
  </g>
</svg>